# xmcd CD database file
# Copyright 1993-1996 (C) Ti Kan
#
# Track frame offsets:
#    150
#    18182
#    38567
#    59020
#    74992
#    101270
#    119842
#    137430
#    156330
#    174647
#    193447
#    211075
#    227007
#    253287
#
# Disc length: 3646 seconds
#
# Revision: 0
# Processed by: cddbd v1.4b41PL1 Copyright (c) Steve Scherf et al.
# Submitted via: MyCDplayer 2.4.1  (wjohn@fix.net)
#
DISCID=d30e3c0e
DTITLE=The Barrio Boyzz - 
DTITLE=Crazy Coolin'
DYEAR=1900
DGENRE=
TTITLE0=A Chance For Love
TTITLE1=The Love That You Deserve
TTITLE2=I'll Treat You Right
TTITLE3=Crazy Coolin'
TTITLE4=With You
TTITLE5=Thought You Were Mine
TTITLE6=Latin Groove
TTITLE7=Whisper To Me
TTITLE8=Taste Of Love
TTITLE9=O' My Goodness
TTITLE10=Deeper
TTITLE11=Muy Suavemente
TTITLE12=Y Eres Tu
TTITLE13=The Love That You Deserve
EXTD=
EXTT0=
EXTT1=
EXTT2=
EXTT3=
EXTT4=
EXTT5=
EXTT6=
EXTT7=
EXTT8=
EXTT9=
EXTT10=
EXTT11=
EXTT12=
EXTT13=Spanish Version
PLAYORDER=
